<svg data-v-423bf9ae="" xmlns="http://www.w3.org/2000/svg" viewBox="0 0 211.31196392312143 60" class="font"><!----><!----><defs data-v-423bf9ae=""><linearGradient data-v-423bf9ae="" gradientTransform="rotate(25)" id="80b020f0-b7ac-4617-b348-56536c1315b3" x1="0%" y1="0%" x2="100%" y2="0%"><stop data-v-423bf9ae="" offset="0%" style="stop-color: rgb(201, 58, 95); stop-opacity: 1;"></stop><stop data-v-423bf9ae="" offset="100%" style="stop-color: rgb(239, 176, 202); stop-opacity: 1;"></stop></linearGradient></defs><g data-v-423bf9ae="" id="5bfb7382-3237-408f-8312-79f71a36abfe" fill="url(#80b020f0-b7ac-4617-b348-56536c1315b3)" transform="matrix(5.830903811703725,0,0,5.830903811703725,-5.481053198552232,-12.6530621930969)"><path d="M0.94 12.29L0.94 4.93L1.88 4.93L2.02 5.92L2.11 5.92L2.11 5.92Q2.93 4.76 4.59 4.76L4.59 4.76L4.59 4.76Q5.70 4.76 6.29 5.35L6.29 5.35L6.29 5.35Q6.89 5.95 6.89 7.27L6.89 7.27L6.89 12.29L5.66 12.29L5.66 7.35L5.66 7.35Q5.66 6.47 5.26 6.13L5.26 6.13L5.26 6.13Q4.87 5.78 4.13 5.78L4.13 5.78L4.13 5.78Q3.60 5.78 3.15 6.04L3.15 6.04L3.15 6.04Q2.70 6.30 2.44 6.79L2.44 6.79L2.44 6.79Q2.17 7.28 2.17 7.94L2.17 7.94L2.17 12.29L0.94 12.29ZM10.72 12.46L10.72 12.46Q9.77 12.46 9.03 12.01L9.03 12.01L9.03 12.01Q8.29 11.56 8.29 10.39L8.29 10.39L8.29 10.39Q8.29 8.97 9.55 8.45L9.55 8.45L9.55 8.45Q10.81 7.92 13.19 7.92L13.19 7.92L13.19 7.11L13.19 7.11Q13.19 6.47 12.82 6.13L12.82 6.13L12.82 6.13Q12.46 5.78 11.51 5.78L11.51 5.78L11.51 5.78Q10.61 5.78 10.23 6.12L10.23 6.12L10.23 6.12Q9.84 6.45 9.84 6.94L9.84 6.94L9.84 7.11L8.65 7.11L8.65 7.11Q8.64 7.03 8.64 6.80L8.64 6.80L8.64 6.80Q8.64 5.82 9.45 5.29L9.45 5.29L9.45 5.29Q10.26 4.76 11.62 4.76L11.62 4.76L11.62 4.76Q12.99 4.76 13.71 5.33L13.71 5.33L13.71 5.33Q14.42 5.91 14.42 6.96L14.42 6.96L14.42 10.95L14.42 10.95Q14.42 11.20 14.56 11.32L14.56 11.32L14.56 11.32Q14.70 11.44 14.91 11.44L14.91 11.44L15.47 11.44L15.47 12.24L15.47 12.24Q15.11 12.40 14.52 12.40L14.52 12.40L14.52 12.40Q14.04 12.40 13.72 12.12L13.72 12.12L13.72 12.12Q13.40 11.83 13.29 11.35L13.29 11.35L13.19 11.35L13.19 11.35Q12.81 11.87 12.16 12.17L12.16 12.17L12.16 12.17Q11.51 12.46 10.72 12.46L10.72 12.46ZM11.05 11.44L11.05 11.44Q11.59 11.44 12.08 11.21L12.08 11.21L12.08 11.21Q12.57 10.99 12.88 10.55L12.88 10.55L12.88 10.55Q13.19 10.11 13.19 9.48L13.19 9.48L13.19 8.95L13.19 8.95Q11.38 8.95 10.48 9.23L10.48 9.23L10.48 9.23Q9.58 9.52 9.58 10.32L9.58 10.32L9.58 10.32Q9.58 10.92 9.95 11.18L9.95 11.18L9.95 11.18Q10.32 11.44 11.05 11.44L11.05 11.44ZM16.51 12.29L16.51 4.93L17.44 4.93L17.58 6.03L17.67 6.03L17.67 6.03Q17.88 5.49 18.30 5.12L18.30 5.12L18.30 5.12Q18.72 4.76 19.40 4.76L19.40 4.76L19.40 4.76Q19.64 4.76 19.83 4.81L19.83 4.81L19.83 4.81Q20.02 4.86 20.06 4.87L20.06 4.87L20.06 6.06L19.54 6.06L19.54 6.06Q18.76 6.06 18.25 6.52L18.25 6.52L18.25 6.52Q17.74 6.97 17.74 7.94L17.74 7.94L17.74 12.29L16.51 12.29ZM21.17 3.54L21.17 2.17L22.40 2.17L22.40 3.54L21.17 3.54ZM21.17 12.29L21.17 4.93L22.40 4.93L22.40 12.29L21.17 12.29ZM25.94 12.45L25.94 12.45Q25.19 12.45 24.84 12.00L24.84 12.00L24.84 12.00Q24.49 11.55 24.49 10.89L24.49 10.89L24.49 5.95L23.59 5.95L23.59 4.93L24.50 4.93L24.77 2.88L25.72 2.88L25.72 4.93L26.96 4.93L26.96 5.95L25.72 5.95L25.72 10.78L25.72 10.78Q25.72 11.44 26.33 11.44L26.33 11.44L26.96 11.44L26.96 12.25L26.96 12.25Q26.78 12.33 26.49 12.39L26.49 12.39L26.49 12.39Q26.19 12.45 25.94 12.45L25.94 12.45ZM30.17 12.46L30.17 12.46Q29.22 12.46 28.48 12.01L28.48 12.01L28.48 12.01Q27.73 11.56 27.73 10.39L27.73 10.39L27.73 10.39Q27.73 8.97 28.99 8.45L28.99 8.45L28.99 8.45Q30.25 7.92 32.63 7.92L32.63 7.92L32.63 7.11L32.63 7.11Q32.63 6.47 32.27 6.13L32.27 6.13L32.27 6.13Q31.91 5.78 30.95 5.78L30.95 5.78L30.95 5.78Q30.06 5.78 29.67 6.12L29.67 6.12L29.67 6.12Q29.29 6.45 29.29 6.94L29.29 6.94L29.29 7.11L28.10 7.11L28.10 7.11Q28.08 7.03 28.08 6.80L28.08 6.80L28.08 6.80Q28.08 5.82 28.90 5.29L28.90 5.29L28.90 5.29Q29.71 4.76 31.07 4.76L31.07 4.76L31.07 4.76Q32.44 4.76 33.15 5.33L33.15 5.33L33.15 5.33Q33.87 5.91 33.87 6.96L33.87 6.96L33.87 10.95L33.87 10.95Q33.87 11.20 34.01 11.32L34.01 11.32L34.01 11.32Q34.15 11.44 34.36 11.44L34.36 11.44L34.92 11.44L34.92 12.24L34.92 12.24Q34.55 12.40 33.96 12.40L33.96 12.40L33.96 12.40Q33.49 12.40 33.17 12.12L33.17 12.12L33.17 12.12Q32.84 11.83 32.73 11.35L32.73 11.35L32.63 11.35L32.63 11.35Q32.26 11.87 31.61 12.17L31.61 12.17L31.61 12.17Q30.95 12.46 30.17 12.46L30.17 12.46ZM30.49 11.44L30.49 11.44Q31.04 11.44 31.53 11.21L31.53 11.21L31.53 11.21Q32.02 10.99 32.33 10.55L32.33 10.55L32.33 10.55Q32.63 10.11 32.63 9.48L32.63 9.48L32.63 8.95L32.63 8.95Q30.83 8.95 29.93 9.23L29.93 9.23L29.93 9.23Q29.02 9.52 29.02 10.32L29.02 10.32L29.02 10.32Q29.02 10.92 29.39 11.18L29.39 11.18L29.39 11.18Q29.76 11.44 30.49 11.44L30.49 11.44ZM35.95 3.54L35.95 2.17L37.18 2.17L37.18 3.54L35.95 3.54ZM35.95 12.29L35.95 4.93L37.18 4.93L37.18 12.29L35.95 12.29Z"></path></g><!----><!----></svg>